<svg viewBox="0 0 207.36 38.4" xmlns="http://www.w3.org/2000/svg">
<g transform="matrix(1.0864 0 0 1.0864 .5 .49957)" fill-rule="evenodd">
<path d="m27.762 15.041c0.1436 0.7016 0.2192 1.4283 0.2192 2.1726 0 5.9473-4.821 10.768-10.768 10.768-0.866 0-1.708-0.1028-2.5148-0.296l-6.5527 4.1599c2.6331 1.6355 5.7399 2.5806 9.0675 2.5806 9.5064 0 17.213-7.7064 17.213-17.213 0-3.1754-0.8609-6.1494-2.3604-8.7031z" fill="#009035"/>
<path d="m17.213 6.4449c0.9161 0 1.8054 0.1148 2.6545 0.33l6.5105-4.133c-2.6536-1.6729-5.7961-2.6415-9.165-2.6415-9.5064 0-17.213 7.7064-17.213 17.213 0 3.2023 0.8756 6.1998 2.3987 8.7678l4.2852-6.5027c-0.1563-0.7303-0.2394-1.488-0.2394-2.2651 0-5.9473 4.821-10.768 10.768-10.768z" fill="#e30016"/>
<g transform="translate(-183.97 -411.53)" fill="#b1c900">
<path d="m199.58 435.47-5.2209-4.8945-9.2996 14.113z"/>
<path d="m202.84 422.14 5.2209 4.8945 9.2997-14.113z"/>
</g>
<path d="m17.245 10.035a7.1786 7.1786 0 0 1 7.1786 7.1786 7.1786 7.1786 0 1 1-7.1786-7.1786z" fill="#009ee0"/>
</g>
<path d="M41.644 33.545q.644-4.025.936-6.469.507-4.087 1.28-11.706.575-5.628.737-7.948l.133-1.91q5.787.04 10.125.04l5.65-.02 3.371-.02q-.435 3.06-.551 4.436l-2.878-.103-1.169-.02h-4.64l-4.178.02-.756 7.373 3.425.062q3.914 0 5.025-.021l2.747-.041q-.307 2.382-.485 4.354-3.505-.082-5.583-.082-2.623 0-5.675.082l-.856 9.078-.149 1.848-.073 1.047-3.084-.04q-.242 0-3.352.04zM67.682 9.085q.229-2.115.308-3.245l.045-.657q1.834.041 2.984.041 1.573 0 2.928-.041-.096.513-.162 1.17l-.292 2.732q-1.53-.041-2.822-.041-1.29 0-2.989.041zm-2.796 24.46q.518-3.08.784-5.155.43-3.286.872-7.578.46-4.292.79-8.153 1.975.04 2.963.04.908 0 2.949-.04-.532 3.573-.94 6.818-.388 3.245-.76 7.435-.374 4.19-.544 6.633-1.833-.04-2.943-.04-1.05 0-3.17.04zM88.832 29.253q-.321 1.13-1.06 4.19-1.721.39-2.697.493-.975.102-1.823.102-1.493 0-2.663-.287-1.15-.288-1.867-1.007-.715-.739-.93-1.704-.193-.986-.12-2.033.018-.267.07-.72.052-.451.365-2.916l1.06-8.543h-2.905q.187-1.232.458-3.964h3.046q.204-1.191.525-4.046l2.413-.472q.757-.144 2.933-.678-.335 2.773-.524 5.196h5.124q-.334 2.773-.417 3.964h-5.145q-1.007 8.359-1.099 9.673-.088 1.273.125 1.972.234.698.818 1.006.583.308 1.27.308.504 0 1.054-.082.57-.082 1.989-.452zM91.64 33.545q.64-3.676 1.16-8.256l1.167-10.063q.623-5.463.92-9.714 2.337.04 3.971.04 1.21 0 3.534-.04 1.997 4.045 5.558 10.556 3.56 6.51 5.724 10.782l2.076-19.059q.068-.677.18-2.28 1.893.042 2.862.042.383 0 2.827-.041l-1.03 7.537-1.525 12.897-.773 7.6q-2.095-.042-3.568-.042-1.17 0-3.796.041-.881-1.828-1.344-2.71-.733-1.356-3.141-5.587-1.58-2.793-3.94-7.147-1.734-3.204-2.96-5.586-.393 3.327-1.365 12.343-.398 3.676-.828 8.687-1.894-.04-2.741-.04-.666 0-2.969.04zM142.444 28.883q-.347 1.212-1.05 4.354-2.212.473-3.717.637-1.504.164-3.017.164-2.643 0-4.704-.534-2.041-.534-3.516-1.95-1.473-1.438-2.075-3.513-.602-2.074-.443-4.354.176-2.526 1.209-4.888 1.034-2.382 2.692-3.881 1.68-1.52 3.72-2.136 2.042-.637 4.22-.637 2.058 0 3.877.534 1.82.514 2.988 1.705 1.188 1.191 1.737 2.875.57 1.664.426 3.717-.067.966-.34 1.992l-14.79.021q-.094.76-.125 1.212-.096 1.376.287 2.526.384 1.15 1.216 1.95.832.802 2.035 1.192 1.205.37 2.396.37 1.392 0 3.027-.308 1.656-.308 3.947-1.048zm-12.455-8.297l9.441.02q.069-.985.041-1.457-.027-.473-.208-1.068-.158-.617-.49-1.068-.33-.473-.793-.78-.463-.309-1.097-.473-.614-.164-1.34-.164-.847 0-1.673.267-.806.266-1.507.78-.702.513-1.17 1.15-.448.637-.691 1.232-.242.575-.513 1.561zM146.443 33.155l-.128-4.518q1.92.821 3.269 1.15 1.35.308 2.5.308t1.956-.267q.807-.288 1.227-.821.422-.555.464-1.15.018-.268-.026-.493-.025-.226-.15-.473-.103-.246-.27-.452-.146-.226-.43-.493-.282-.287-.817-.718l-1.028-.884q-1.486-1.252-2.263-1.971-.778-.719-1.29-1.458-.513-.76-.758-1.582-.224-.842-.164-1.704.105-1.5 1.087-2.855 1.003-1.355 2.76-1.972 1.76-.636 4.08-.636 2.643 0 6.049.636l-.037 4.293q-2.273-.966-4.432-.966-1.17 0-2.075.247-.884.226-1.301.719-.417.472-.458 1.068-.025.349.072.698.098.329.375.698.277.37.637.699.381.328 1.565 1.293 1.183.966 2.057 1.746.894.78 1.443 1.581.55.78.81 1.685.26.903.196 1.827-.108 1.54-1.127 2.855-1.02 1.315-2.948 2.054-1.928.74-4.248.74-1.21 0-2.932-.206-1.722-.185-3.665-.678zM164.602 33.155l-.13-4.518q1.92.821 3.27 1.15 1.35.308 2.5.308t1.956-.267q.807-.288 1.227-.821.422-.555.464-1.15.018-.268-.026-.493-.025-.226-.149-.473-.104-.246-.271-.452-.146-.226-.43-.493-.282-.287-.817-.718l-1.028-.884q-1.486-1.252-2.263-1.971-.777-.719-1.29-1.458-.513-.76-.758-1.582-.224-.842-.164-1.704.105-1.5 1.087-2.855 1.003-1.355 2.76-1.972 1.76-.636 4.08-.636 2.643 0 6.049.636l-.037 4.293q-2.273-.966-4.432-.966-1.17 0-2.075.247-.884.226-1.301.719-.417.472-.458 1.068-.025.349.072.698.098.329.375.698.277.37.637.699.381.328 1.565 1.293 1.183.966 2.057 1.746.894.78 1.443 1.581.55.78.81 1.685.26.903.196 1.827-.108 1.54-1.127 2.855-1.02 1.315-2.948 2.054-1.928.74-4.248.74-1.21 0-2.932-.206-1.722-.185-3.665-.678zM201.922 28.883q-.347 1.212-1.05 4.354-2.212.473-3.717.637-1.504.164-3.017.164-2.643 0-4.704-.534-2.041-.534-3.516-1.95-1.474-1.438-2.075-3.513-.602-2.074-.443-4.354.176-2.526 1.209-4.888 1.033-2.382 2.691-3.881 1.68-1.52 3.72-2.136 2.042-.637 4.221-.637 2.058 0 3.877.534 1.82.514 2.988 1.705 1.188 1.191 1.736 2.875.57 1.664.427 3.717-.067.966-.34 1.992l-14.79.021q-.094.76-.126 1.212-.096 1.376.288 2.526t1.216 1.95q.832.802 2.035 1.192 1.205.37 2.395.37 1.393 0 3.028-.308 1.656-.308 3.947-1.048zm-12.455-8.297l9.441.02q.069-.985.041-1.457-.027-.473-.208-1.068-.159-.617-.49-1.068-.33-.473-.793-.78-.463-.309-1.097-.473-.614-.164-1.34-.164-.848 0-1.673.267-.806.266-1.507.78-.702.513-1.17 1.15-.448.637-.691 1.232-.242.575-.513 1.561z" fill="#00afef"/>
</svg>
